<?xml version="1.0" encoding="utf-8"?>
<!-- Generator: Adobe Illustrator 22.0.1, SVG Export Plug-In . SVG Version: 6.00 Build 0)  -->
<svg version="1.1" id="Calque_1" xmlns="http://www.w3.org/2000/svg" xmlns:xlink="http://www.w3.org/1999/xlink" x="0px" y="0px"
	 viewBox="0 0 54.2 93.6" style="enable-background:new 0 0 54.2 93.6;" xml:space="preserve">
<style type="text/css">
	.st0{fill:#FFFFFF;}
	.st1{fill:#FFFFFF;stroke:#FFFFFF;stroke-width:8;stroke-miterlimit:10;}
	.st2{fill:none;stroke:#FFFFFF;stroke-width:8;stroke-miterlimit:10;}
</style>
<circle class="st0" cx="44.7" cy="13.1" r="4.1"/>
<circle class="st0" cx="44.7" cy="27.9" r="4"/>
<rect x="40.7" y="27.9" class="st0" width="8" height="40.1"/>
<rect x="118.7" y="34.7" class="st0" width="23.4" height="8"/>
<path class="st1" d="M83.7,89"/>
<circle class="st0" cx="104.6" cy="68.1" r="4"/>
<circle class="st0" cx="83.6" cy="89" r="4"/>
<circle class="st0" cx="104.7" cy="88.9" r="4.1"/>
<path class="st2" d="M83.7,89c-11.6,0-21-9.4-21-21s9.4-21,21-21c11.6,0,21,9.4,21,21"/>
<circle class="st0" cx="9" cy="82.8" r="4"/>
<circle class="st0" cx="9.1" cy="53.1" r="4"/>
<path class="st2" d="M9,53.2c8.2-8.2,21.5-8.2,29.6,0s8.2,21.5,0,29.6C30.4,91,17.1,91,9,82.8"/>
<circle class="st0" cx="122.8" cy="13.2" r="4"/>
<rect x="118.8" y="13.2" class="st0" width="8" height="55.7"/>
<circle class="st0" cx="161.5" cy="78.8" r="4"/>
<path class="st2" d="M161.5,78.9c-6.1,9.8-19.1,12.8-28.9,6.6c-6.3-3.9-9.8-10.7-9.8-17.6"/>
<circle class="st0" cx="142.2" cy="38.8" r="4"/>
<circle class="st0" cx="221.7" cy="68.1" r="4"/>
<circle class="st0" cx="200.7" cy="89" r="4"/>
<circle class="st0" cx="221.8" cy="88.9" r="4.1"/>
<circle class="st0" cx="239.7" cy="13" r="4.1"/>
<path class="st2" d="M200.8,89c-11.6,0-21-9.4-21-21s9.4-21,21-21s21,9.4,21,21"/>
<rect x="235.7" y="13" class="st0" width="8" height="55.8"/>
<path class="st2" d="M271.6,85.9c-6.6,4-15.1,4.2-22-0.1c-6.3-3.9-9.8-10.7-9.8-17.6"/>
<circle class="st0" cx="271.6" cy="85.9" r="4.1"/>
<path class="st2" d="M320.7,86.2c-10.2,5.5-22.9,1.7-28.4-8.5s-1.7-22.9,8.5-28.4s22.9-1.7,28.4,8.5"/>
<circle class="st0" cx="312.9" cy="64.1" r="4.1"/>
<circle class="st0" cx="368.3" cy="89" r="4.1"/>
<circle class="st0" cx="386.3" cy="77.7" r="4.1"/>
<circle class="st0" cx="350.3" cy="77.9" r="4.1"/>
<circle class="st0" cx="321" cy="85.9" r="4.1"/>
<circle class="st0" cx="329.2" cy="57.7" r="4.1"/>
<path class="st2" d="M350.3,77.9c-4.4-8-3.6-18.8,3.2-25.6c8.2-8.2,21.5-8.2,29.6,0c6.9,6.9,8,17.5,3.2,25.6"/>
<rect x="403.8" y="35" class="st0" width="23.4" height="8"/>
<circle class="st0" cx="407.9" cy="13" r="4"/>
<circle class="st0" cx="446.6" cy="79" r="4"/>
<path class="st2" d="M446.6,79.1c-6.1,9.8-19.1,12.8-28.9,6.6c-6.3-3.9-9.8-10.7-9.8-17.6"/>
<circle class="st0" cx="427.2" cy="39" r="4"/>
<rect x="403.8" y="13" class="st0" width="8" height="55.8"/>
<rect x="100.6" y="65.1" class="st0" width="8" height="22.7"/>
<rect x="217.9" y="66.5" class="st0" width="8" height="22.7"/>
<path class="st2" d="M4.1,61C8,50.1,19.9,44.4,30.9,48.2C41.8,52.1,47.5,64,43.7,75S27.9,91.6,16.9,87.8"/>
<path class="st2" d="M14.5,49.2c10.4-5.2,22.9-0.9,28.1,9.4s0.9,22.9-9.4,28.1s-22.9,0.9-28.1-9.4"/>
<circle class="st0" cx="4.1" cy="61.2" r="4.1"/>
<circle class="st0" cx="5" cy="77.1" r="4.1"/>
<path class="st2" d="M476.2,67.4c-3.8-0.4-7.5-2.7-9.2-6.3c-2.6-5.6-0.2-12.3,5.4-14.9c4.7-2.2,10.3-0.8,13.5,3"/>
<path class="st2" d="M466.7,85.8"/>
<path class="st2" d="M476,67.4c3.8,0.4,7.5,2.5,9.3,6.1c2.8,5.5,0.5,12.3-5.1,15c-4.6,2.3-9.9,1.1-13.2-2.4"/>
<circle class="st0" cx="467" cy="86.4" r="4.1"/>
<circle class="st0" cx="485.8" cy="49.2" r="4.1"/>
<circle class="st0" cx="509" cy="89" r="4.1"/>
</svg>
